<svg width="48" height="48" viewBox="0 0 48 48" xmlns="http://www.w3.org/2000/svg"><title>CodePen</title><g fill="#000" fill-rule="evenodd"><path d="M24 0C10.746 0 0 10.746 0 24s10.746 24 24 24 24-10.746 24-24S37.264 0 24 0zm0 44.07c-11.064 0-20.06-8.996-20.06-20.06C3.94 12.947 12.936 3.95 24 3.95c11.064 0 20.06 8.997 20.06 20.06 0 11.064-8.996 20.06-20.06 20.06z"/><path d="M38.84 19.313c0-.02-.01-.041-.01-.052-.01-.04-.01-.071-.02-.102-.01-.02-.01-.04-.021-.061l-.03-.092-.031-.062c-.01-.03-.031-.061-.041-.082-.01-.02-.02-.04-.041-.061-.02-.03-.031-.051-.052-.082a.223.223 0 0 0-.04-.051c-.021-.02-.041-.051-.062-.072l-.051-.051c-.02-.02-.051-.041-.072-.061-.02-.01-.04-.031-.061-.041-.01 0-.01-.01-.02-.02L24.715 9.374a1.268 1.268 0 0 0-1.412 0L9.733 18.422c-.01 0-.01.01-.02.02-.02.01-.041.031-.062.042-.02.02-.051.04-.071.061l-.052.051c-.02.02-.04.041-.061.072-.01.02-.03.04-.041.051a.223.223 0 0 0-.051.082c-.01.02-.02.04-.041.061a.306.306 0 0 0-.041.082l-.03.062-.031.092c-.01.02-.01.04-.02.061a.364.364 0 0 0-.021.102c0 .02-.01.041-.01.052-.01.05-.01.112-.01.163v9.048c0 .05 0 .112.01.163 0 .02.01.041.01.052.01.04.01.071.02.102.01.02.01.04.02.061l.031.092.031.062c.01.03.03.061.04.082.011.02.021.04.042.061.02.03.03.051.051.082.01.02.03.041.041.051.02.02.04.051.061.072l.052.051c.02.02.05.041.071.061.02.01.041.031.062.041.01 0 .01.01.02.02l13.571 9.048a1.271 1.271 0 0 0 1.412 0l13.561-9.037c.01 0 .01-.01.02-.02.021-.01.042-.031.062-.041.02-.02.051-.041.072-.062l.05-.05c.021-.021.042-.042.062-.073.01-.02.031-.04.041-.05.02-.021.041-.052.051-.083.01-.02.02-.04.041-.061.02-.03.031-.051.041-.082l.031-.061.03-.092c.01-.02.01-.041.021-.062.01-.03.02-.071.02-.102 0-.02.01-.041.01-.051.011-.052.011-.113.011-.164v-9.047c.01-.062 0-.113 0-.174zm-13.56-6.49l9.998 6.664-4.472 2.988-5.527-3.695v-5.956zm-2.55 0v5.947l-5.526 3.695-4.462-2.989 9.989-6.652zM11.72 21.872l3.193 2.14-3.193 2.138v-4.278zM22.73 35.186l-10-6.662 4.463-2.989 5.527 3.695v5.956h.01zM24 27.02L19.487 24 24 20.98 28.513 24 24 27.02zm1.28 8.167V29.24l5.526-3.695 4.462 2.989-9.989 6.652zm11.012-9.047L33.099 24l3.193-2.139v4.278z"/></g></svg>