<svg width="49" height="48" viewBox="0 0 49 48" xmlns="http://www.w3.org/2000/svg"><title>Fill 3</title><path d="M24.032 48C10.778 48 0 37.233 0 24S10.778 0 24.032 0s24.032 10.767 24.032 24-10.778 24-24.032 24zm20.265-20.713c-.704-.224-6.35-1.9-12.784-.875 2.689 7.363 3.777 13.371 3.99 14.62 4.6-3.116 7.876-8.047 8.794-13.745zm-12.25 15.612c-.31-1.803-1.495-8.068-4.376-15.548-.043.01-.085.032-.139.043-11.578 4.033-15.73 12.048-16.103 12.805a20.444 20.444 0 0 0 12.603 4.333c2.839 0 5.55-.576 8.014-1.633zM8.782 37.734c.47-.79 6.093-10.106 16.679-13.531.267-.086.534-.171.811-.246a68.887 68.887 0 0 0-1.665-3.479c-10.255 3.063-20.2 2.935-21.097 2.914-.01.202-.01.416-.01.63a20.41 20.41 0 0 0 5.282 13.712zM3.938 19.838c.917.01 9.37.054 18.974-2.497-3.405-6.04-7.065-11.109-7.61-11.856-5.74 2.7-10.03 7.993-11.364 14.353zm15.281-15.73c.566.758 4.3 5.827 7.662 12.006 7.3-2.732 10.394-6.883 10.757-7.406a20.454 20.454 0 0 0-13.606-5.165 19.94 19.94 0 0 0-4.813.565zm20.703 6.958c-.438.587-3.874 4.984-11.461 8.079.48.97.939 1.974 1.366 2.966.149.352.298.704.437 1.057 6.83-.854 13.617.512 14.29.661a20.378 20.378 0 0 0-4.632-12.763z" fill="#12100E" fill-rule="evenodd"/></svg>