<svg width="49" height="48" viewBox="0 0 49 48" xmlns="http://www.w3.org/2000/svg"><title>GitHub</title><g fill="none" fill-rule="evenodd"><path d="M0 0h48v48H0z"/><path d="M24 .589c-13.252 0-24 10.748-24 24C0 35.19 6.92 44.172 16.344 47.411c1.177.147 1.62-.589 1.62-1.178V42.11c-6.627 1.473-8.099-3.239-8.099-3.239-1.03-2.797-2.65-3.534-2.65-3.534-2.209-1.472.147-1.472.147-1.472 2.356.147 3.68 2.503 3.68 2.503 2.21 3.681 5.596 2.65 6.921 2.061.147-1.62.884-2.65 1.473-3.239-5.301-.589-10.896-2.65-10.896-11.926 0-2.65.883-4.712 2.503-6.479-.147-.441-1.03-2.945.294-6.184 0 0 2.062-.589 6.626 2.503 1.914-.589 3.976-.736 6.037-.736s4.123.295 6.037.736c4.564-3.092 6.626-2.503 6.626-2.503 1.325 3.24.441 5.743.294 6.332a9.523 9.523 0 0 1 2.503 6.478c0 9.276-5.595 11.19-10.896 11.78.884.735 1.62 2.208 1.62 4.416v6.626c0 .59.442 1.325 1.62 1.178 9.57-3.24 16.343-12.22 16.343-22.822C48 11.337 37.252.589 24 .589z" fill="#181616"/></g></svg>