<svg width="48" height="48" viewBox="0 0 48 48" xmlns="http://www.w3.org/2000/svg"><title>Group</title><g fill="none" fill-rule="evenodd"><path fill="#12100E" d="M0 0h48v48H0z"/><path d="M11.455 16.053c.04-.396-.111-.787-.407-1.053l-3.01-3.627v-.542h9.348l7.226 15.847 6.353-15.847h8.912v.542l-2.574 2.468a.752.752 0 0 0-.286.722v18.135a.752.752 0 0 0 .286.723l2.514 2.468v.542H27.17v-.542l2.605-2.528c.255-.256.255-.332.255-.723V17.98l-7.24 18.39h-.98l-8.43-18.39v12.325a1.7 1.7 0 0 0 .467 1.415l3.387 4.109v.542H7.631v-.542l3.387-4.109c.362-.375.524-.9.437-1.415V16.053z" fill="#FFF"/></g></svg>