<svg width="53" height="43" viewBox="0 0 53 43" xmlns="http://www.w3.org/2000/svg"><title>Fill 4</title><path d="M16.612 43c19.955 0 30.874-16.548 30.874-30.875 0-.465 0-.93-.02-1.396a22.107 22.107 0 0 0 5.416-5.63 21.992 21.992 0 0 1-6.242 1.715 10.917 10.917 0 0 0 4.782-6.01 21.584 21.584 0 0 1-6.898 2.624A10.83 10.83 0 0 0 36.609 0c-5.988 0-10.856 4.867-10.856 10.856 0 .846.106 1.672.276 2.476C17.014 12.887 9.015 8.549 3.66 1.989A10.853 10.853 0 0 0 2.2 7.45a10.88 10.88 0 0 0 4.825 9.036 10.976 10.976 0 0 1-4.91-1.355v.149c0 5.248 3.746 9.65 8.697 10.644-.91.254-1.862.38-2.856.38-.699 0-1.376-.063-2.032-.19a10.85 10.85 0 0 0 10.137 7.534 21.764 21.764 0 0 1-13.48 4.655c-.868 0-1.736-.042-2.582-.148A30.866 30.866 0 0 0 16.612 43" fill="#12100E" fill-rule="evenodd"/></svg>