<?xml version="1.0" encoding="utf-8"?>
<!-- Generator: Adobe Illustrator 24.0.0, SVG Export Plug-In . SVG Version: 6.00 Build 0)  -->
<svg version="1.1" id="Layer_1" xmlns="http://www.w3.org/2000/svg" xmlns:xlink="http://www.w3.org/1999/xlink" x="0px" y="0px"
	 viewBox="0 0 571.6 251.7" style="enable-background:new 0 0 571.6 251.7;" xml:space="preserve">
<path d="M16.6,46.6c-5.2,0-9.2-1.3-12.2-3.9C1.5,40.2,0,36.5,0,31.8V1.5h11.2v29.4c0,2.1,0.5,3.6,1.5,4.7c1,1.1,2.4,1.6,4.3,1.6h0.1
	c1.8,0,3.2-0.5,4.2-1.6s1.5-2.6,1.5-4.7V1.5h10.2v30.3c0,4.7-1.5,8.4-4.4,11c-2.9,2.6-6.9,3.9-11.9,3.9L16.6,46.6L16.6,46.6z"/>
<path d="M50.6,1.5v44.2H40.2V1.5H50.6z"/>
<path d="M71.5,45.7V1.5h14.8c7.2,0,13,1.9,17.1,5.7s6.3,9.2,6.3,16.4c0,7.1-2.1,12.6-6.3,16.4s-9.9,5.8-17.1,5.8H71.5z M81.9,36.5
	h4.4c3.9,0,6.9-1.1,9.2-3.4s3.3-5.4,3.3-9.6c0-4.2-1.1-7.4-3.3-9.6c-2.2-2.2-5.3-3.3-9.2-3.3h-4.4V36.5z"/>
<path d="M141.6,17.8c2.5,3.2,3.7,7.6,3.7,13.5v0.1L122,31.6c0.3,2.4,1.1,4.2,2.4,5.4c1.3,1.2,2.9,1.8,5,1.8c3.2,0,5.3-1.3,6.2-3.8
	l9.2,0.1c-0.6,3.2-2.2,6-4.8,8.3c-2.6,2.3-6.1,3.4-10.4,3.4c-5,0-9-1.6-12.1-4.8c-3.1-3.2-4.7-7.4-4.7-12.6c0-5.1,1.6-9.2,4.7-12.4
	s7.1-4.7,12-4.7C134.5,12.3,138.6,14.2,141.6,17.8z M129,20.1c-1.8,0-3.3,0.5-4.6,1.6c-1.2,1.1-2,2.7-2.4,4.8l13.8-0.1
	c-0.2-2-1-3.5-2.2-4.6C132.4,20.7,130.8,20.1,129,20.1z"/>
<path d="M162.1,46.8c-4,0-7.3-1-9.9-2.8c-2.6-1.9-4.2-4.5-4.7-8l9-0.1c0.8,2.6,2.7,3.9,5.7,3.9c1.4,0,2.4-0.3,3.2-0.9
	c0.8-0.6,1.2-1.5,1.2-2.6c0-1.8-1.4-2.9-4.1-3.2l-5-0.6c-2.9-0.3-5.1-1.2-6.6-2.8s-2.3-3.6-2.3-6.2c0-3.3,1.2-6,3.7-8.1
	c2.5-2.1,5.7-3.2,9.6-3.2c4,0,7.1,1.1,9.6,3.2c2.4,2.1,3.8,4.8,4.3,7.9l-9,0.1c-0.6-2.7-2.3-4.1-5-4.1c-1.4,0-2.4,0.3-3.2,1
	s-1.2,1.5-1.2,2.6c0,1.7,1.3,2.7,3.9,3l4.8,0.5c6.5,0.6,9.8,3.8,9.8,9.5c0,3.5-1.2,6.1-3.7,8.1C169.5,45.8,166.2,46.8,162.1,46.8z"
	/>
<path d="M190.9,0v9.2h-10.5V0H190.9z M190.7,13.4v32.3h-10.2V13.4H190.7z"/>
<path d="M220.2,13.4h8.3v31.5c0,4.6-1.4,8.1-4.4,10.5s-6.6,3.6-11.2,3.6c-4.4,0-8.1-1.1-11.2-3.3c-3-2.2-4.8-5.2-5.4-8.8h9.7
	c0.9,2.7,3.1,4.1,6.4,4.1c2,0,3.5-0.5,4.6-1.5c1.1-1,1.7-2.4,1.7-4.2v-6.6c-0.6,1.8-1.8,3.2-3.5,4.2s-3.8,1.5-6.2,1.5
	c-4,0-7.3-1.4-10-4.2c-2.7-2.8-4-6.6-4-11.4c0-5,1.3-8.9,4-11.8s6.1-4.3,10.2-4.3c2.6,0,4.8,0.6,6.7,1.9c1.8,1.3,3.1,2.9,3.8,4.8
	L220.2,13.4z M207.2,34c1.3,1.2,2.8,1.9,4.7,1.9c1.9,0,3.4-0.6,4.7-1.9c1.3-1.2,1.9-3,1.9-5.3s-0.6-4.1-1.9-5.4
	c-1.3-1.3-2.8-1.9-4.7-1.9c-1.9,0-3.4,0.6-4.7,1.9c-1.3,1.3-1.9,3.1-1.9,5.4C205.3,31,206,32.7,207.2,34z"/>
<path d="M253.2,12.4c3.4,0,6,1.1,7.9,3.2c1.9,2.1,2.8,5.1,2.8,8.8v21.4h-10.3V26.9c0-3.5-1.4-5.2-4.2-5.2c-1.5,0-2.7,0.5-3.6,1.5
	c-0.9,1-1.4,2.5-1.4,4.5v18.1h-10.2V13.4h8.3l0.4,6.3c0.5-2.2,1.7-4,3.5-5.3C248.3,13.1,250.5,12.4,253.2,12.4z"/>
<path d="M296.7,17.8c2.5,3.2,3.7,7.6,3.7,13.5v0.1l-23.3,0.2c0.3,2.4,1.1,4.2,2.4,5.4c1.3,1.2,2.9,1.8,5,1.8c3.2,0,5.3-1.3,6.2-3.8
	l9.2,0.1c-0.6,3.2-2.2,6-4.8,8.3c-2.6,2.3-6.1,3.4-10.4,3.4c-5,0-9-1.6-12.1-4.8c-3.1-3.2-4.7-7.4-4.7-12.6c0-5.1,1.5-9.2,4.6-12.4
	s7.1-4.7,12-4.7C289.6,12.3,293.7,14.2,296.7,17.8z M284.1,20.1c-1.8,0-3.3,0.5-4.5,1.6c-1.2,1.1-2,2.7-2.4,4.8l13.8-0.1
	c-0.2-2-1-3.5-2.2-4.6C287.5,20.7,285.9,20.1,284.1,20.1z"/>
<path d="M321.5,12.5c0.8,0,1.6,0.1,2.5,0.4l-0.4,11h-0.2c-1.2-0.7-2.4-1-3.6-1c-1.6,0-2.9,0.5-4,1.6c-1,1.1-1.6,2.6-1.6,4.5v16.7
	h-10.2V13.4h8.3l0.4,5.8c0.5-2.1,1.6-3.8,3.1-4.9C317.4,13.1,319.3,12.5,321.5,12.5z"/>
<path d="M27.2,98.6v9.1H10.5v9.4h14.7v8.7H10.5v17.1H0V98.6H27.2z"/>
<path d="M47.9,109.6c0.8,0,1.6,0.1,2.5,0.4l-0.4,11h-0.2c-1.2-0.7-2.4-1-3.6-1c-1.6,0-2.9,0.5-4,1.6s-1.6,2.6-1.6,4.5v16.7H30.5
	v-32.3h8.3l0.4,5.8c0.5-2.1,1.6-3.8,3.1-4.9C43.8,110.2,45.7,109.6,47.9,109.6z"/>
<path d="M68.8,143.8c-5,0-9-1.6-12.1-4.7c-3.1-3.2-4.6-7.3-4.6-12.4c0-5.2,1.5-9.3,4.7-12.5c3.1-3.1,7.1-4.7,12.1-4.7
	c4.8,0,8.8,1.6,11.8,4.7s4.6,7.3,4.6,12.5c0,5.1-1.5,9.3-4.6,12.4C77.6,142.2,73.7,143.8,68.8,143.8z M68.8,135.2
	c2.1,0,3.8-0.8,5.1-2.4c1.3-1.6,1.9-3.6,1.9-6.2c0-2.6-0.6-4.7-1.9-6.3c-1.3-1.6-2.9-2.4-5.1-2.4c-2.2,0-3.9,0.8-5.2,2.4
	c-1.3,1.6-1.9,3.7-1.9,6.3c0,2.6,0.6,4.7,1.9,6.3C64.8,134.5,66.6,135.2,68.8,135.2z"/>
<path d="M108.5,109.5c3.4,0,6,1.1,7.9,3.2c1.9,2.1,2.8,5.1,2.8,8.8v21.4h-10.3V124c0-3.5-1.4-5.2-4.2-5.2c-1.5,0-2.7,0.5-3.6,1.6
	c-0.9,1-1.4,2.5-1.4,4.5v18.1H89.6v-32.3h8.3l0.4,6.3c0.5-2.2,1.7-4,3.5-5.3C103.6,110.2,105.8,109.5,108.5,109.5z"/>
<path d="M143.8,118.9h-6.6v12.6c0,2.3,1,3.4,3,3.4h0.1c0.9,0,2-0.2,3.5-0.8h0.1v7.1c-0.3,0.7-1.1,1.3-2.3,1.8
	c-1.2,0.5-2.6,0.8-4.2,0.8h-0.1c-3.2,0-5.8-0.9-7.6-2.8s-2.7-4.6-2.7-8.2v-14h-4.9v-8.3h4.9v-8.3h10.2v8.3h6.6L143.8,118.9
	L143.8,118.9z"/>
<path d="M188.7,114.9c2.5,3.2,3.7,7.7,3.7,13.5v0.1l-23.3,0.2c0.3,2.4,1.1,4.2,2.4,5.4c1.3,1.2,2.9,1.8,5,1.8c3.2,0,5.3-1.3,6.2-3.8
	l9.2,0.1c-0.6,3.2-2.2,6-4.8,8.3s-6.1,3.4-10.4,3.4c-5,0-9-1.6-12.1-4.8c-3.1-3.2-4.7-7.4-4.7-12.6c0-5.1,1.6-9.2,4.6-12.4
	c3.1-3.1,7.1-4.7,12-4.7C181.7,109.4,185.8,111.3,188.7,114.9z M176.1,117.2c-1.8,0-3.3,0.6-4.6,1.6c-1.2,1.1-2,2.7-2.4,4.8
	l13.8-0.1c-0.2-2-1-3.5-2.2-4.7C179.5,117.8,178,117.2,176.1,117.2z"/>
<path d="M215.1,109.5c3.4,0,6,1.1,7.9,3.2c1.9,2.1,2.8,5.1,2.8,8.8v21.4h-10.3V124c0-3.5-1.4-5.2-4.2-5.2c-1.5,0-2.7,0.5-3.6,1.6
	c-0.9,1-1.4,2.5-1.4,4.5v18.1h-10.2v-32.3h8.3l0.4,6.3c0.5-2.2,1.7-4,3.5-5.3C210.2,110.2,212.4,109.5,215.1,109.5z"/>
<path d="M253.7,98.3h10v44.6h-8.3l-0.4-5.6c-0.7,1.9-2.1,3.5-4,4.7c-2,1.2-4.3,1.8-6.9,1.8c-4.1,0-7.5-1.5-10.2-4.5
	c-2.7-3-4-7.1-4-12.3c0-5.4,1.3-9.6,3.9-12.6c2.6-3,5.9-4.6,9.9-4.6c2.3,0,4.3,0.5,6.1,1.5c1.8,1,3.1,2.3,3.9,3.9L253.7,98.3
	L253.7,98.3z M241.8,132.8c1.3,1.4,2.9,2.1,4.9,2.1s3.7-0.7,5-2.1c1.3-1.4,2-3.4,2-6v-0.1c0-2.6-0.7-4.6-2-6c-1.3-1.4-3-2.2-5-2.2
	c-2,0-3.7,0.7-4.9,2.2s-1.9,3.5-1.9,6.2C239.9,129.4,240.5,131.4,241.8,132.8z"/>
<path d="M284,142.8V98.6h14.8c7.2,0,13,1.9,17.1,5.7c4.2,3.8,6.3,9.2,6.3,16.4c0,7.1-2.1,12.6-6.3,16.4s-9.9,5.8-17.1,5.8H284z
	 M294.3,133.7h4.4c3.9,0,6.9-1.1,9.2-3.4s3.4-5.4,3.4-9.6c0-4.2-1.1-7.4-3.4-9.6c-2.2-2.2-5.3-3.3-9.2-3.3h-4.4V133.7z"/>
<path d="M354,114.9c2.5,3.2,3.7,7.7,3.7,13.5v0.1l-23.3,0.2c0.3,2.4,1.1,4.2,2.4,5.4c1.3,1.2,2.9,1.8,5,1.8c3.2,0,5.3-1.3,6.2-3.8
	l9.2,0.1c-0.6,3.2-2.2,6-4.8,8.3c-2.6,2.3-6.1,3.4-10.4,3.4c-5,0-9-1.6-12.1-4.8c-3.1-3.2-4.7-7.4-4.7-12.6c0-5.1,1.5-9.2,4.6-12.4
	s7.1-4.7,12-4.7C347,109.4,351,111.3,354,114.9z M341.4,117.2c-1.8,0-3.3,0.6-4.5,1.6c-1.2,1.1-2,2.7-2.4,4.8l13.8-0.1
	c-0.2-2-1-3.5-2.2-4.7C344.8,117.8,343.3,117.2,341.4,117.2z"/>
<path d="M368,142.8l-10.7-32.3h11l4.5,15.4l1.3,5.2h0.2l1.3-5.2l4.7-15.4h9.9l-10.7,32.3H368z"/>
<path d="M419.5,114.9c2.5,3.2,3.7,7.7,3.7,13.5v0.1l-23.3,0.2c0.3,2.4,1.1,4.2,2.4,5.4c1.3,1.2,2.9,1.8,5,1.8c3.2,0,5.3-1.3,6.2-3.8
	l9.2,0.1c-0.6,3.2-2.2,6-4.8,8.3c-2.6,2.3-6.1,3.4-10.4,3.4c-5,0-9-1.6-12.1-4.8c-3.1-3.2-4.7-7.4-4.7-12.6c0-5.1,1.5-9.2,4.6-12.4
	s7.1-4.7,12-4.7C412.5,109.4,416.6,111.3,419.5,114.9z M406.9,117.2c-1.8,0-3.3,0.6-4.5,1.6c-1.2,1.1-2,2.7-2.4,4.8l13.8-0.1
	c-0.2-2-1-3.5-2.2-4.7C410.4,117.8,408.8,117.2,406.9,117.2z"/>
<path d="M437.1,98.1v44.7H427V98.1H437.1z"/>
<path d="M458.1,143.8c-5,0-9-1.6-12.1-4.7c-3.1-3.2-4.6-7.3-4.6-12.4c0-5.2,1.5-9.3,4.6-12.5s7.1-4.7,12.1-4.7
	c4.8,0,8.8,1.6,11.8,4.7s4.5,7.3,4.5,12.5c0,5.1-1.5,9.3-4.6,12.4C466.9,142.2,463,143.8,458.1,143.8z M458.1,135.2
	c2.1,0,3.8-0.8,5.1-2.4c1.3-1.6,1.9-3.6,1.9-6.2c0-2.6-0.6-4.7-1.9-6.3c-1.3-1.6-3-2.4-5.1-2.4c-2.2,0-3.9,0.8-5.2,2.4
	c-1.3,1.6-1.9,3.7-1.9,6.3c0,2.6,0.6,4.7,1.9,6.3C454.1,134.5,455.9,135.2,458.1,135.2z"/>
<path d="M498.6,109.6c4.1,0,7.5,1.5,10.1,4.5c2.7,3,4,7.2,4,12.6c0,5.3-1.3,9.5-4,12.5s-6,4.5-10,4.5c-2.3,0-4.4-0.5-6.2-1.5
	s-3.1-2.4-3.9-4.1v15.4h-9.9v-43h8.5l0.3,5.8c0.8-2.1,2.2-3.7,4.2-4.9C493.8,110.2,496,109.6,498.6,109.6z M490.8,132.9
	c1.3,1.4,3,2.1,4.9,2.1c2,0,3.6-0.7,4.9-2.1c1.3-1.4,1.9-3.4,1.9-6.1c0-2.7-0.6-4.7-1.9-6.1c-1.3-1.4-2.9-2.1-4.9-2.1
	c-2,0-3.6,0.7-4.9,2.1s-2,3.4-2,6.1v0.1C488.8,129.6,489.4,131.6,490.8,132.9z"/>
<path d="M544.6,114.9c2.5,3.2,3.7,7.7,3.7,13.5v0.1l-23.3,0.3c0.3,2.4,1.1,4.2,2.4,5.4c1.3,1.2,2.9,1.8,5,1.8c3.2,0,5.3-1.3,6.2-3.8
	l9.2,0.1c-0.6,3.2-2.2,6-4.8,8.3s-6.1,3.4-10.4,3.4c-5,0-9-1.6-12.1-4.8c-3.1-3.2-4.7-7.4-4.7-12.6c0-5.1,1.5-9.2,4.7-12.4
	c3.1-3.1,7.1-4.7,12-4.7C537.6,109.4,541.6,111.3,544.6,114.9z M532,117.2c-1.8,0-3.3,0.6-4.5,1.6c-1.2,1.1-2,2.7-2.4,4.8l13.8-0.1
	c-0.2-2-1-3.5-2.2-4.7C535.4,117.8,533.9,117.2,532,117.2z"/>
<path d="M569.4,109.6c0.8,0,1.6,0.1,2.5,0.4l-0.4,11h-0.2c-1.2-0.7-2.4-1-3.6-1c-1.6,0-2.9,0.5-4,1.6s-1.6,2.6-1.6,4.5v16.7h-10.2
	v-32.3h8.3l0.4,5.8c0.5-2.1,1.6-3.8,3.1-4.9C565.3,110.2,567.2,109.6,569.4,109.6z"/>
<path d="M27.2,194.2v9.1H10.5v9.4h14.7v8.7H10.5v17.1H0v-44.2H27.2z"/>
<path d="M41.8,192.8v9.2H31.4v-9.2H41.8z M41.7,206.2v32.3H31.5v-32.3H41.7z"/>
<path d="M71.2,206.2h8.3v31.5c0,4.6-1.4,8.1-4.4,10.5s-6.6,3.6-11.2,3.6c-4.4,0-8.1-1.1-11.2-3.4c-3-2.2-4.8-5.2-5.4-8.8h9.7
	c0.9,2.7,3.1,4.1,6.5,4.1c2,0,3.5-0.5,4.6-1.5c1.1-1,1.7-2.4,1.7-4.2v-6.6c-0.6,1.8-1.8,3.2-3.5,4.2s-3.8,1.6-6.2,1.6
	c-4,0-7.3-1.4-10-4.2s-4-6.6-4-11.4c0-5,1.3-8.9,4-11.8c2.7-2.9,6.1-4.3,10.2-4.3c2.6,0,4.8,0.6,6.7,1.9c1.8,1.3,3.1,2.9,3.8,4.8
	L71.2,206.2z M58.2,226.8c1.3,1.2,2.8,1.9,4.7,1.9c1.8,0,3.4-0.6,4.7-1.9c1.3-1.2,1.9-3,1.9-5.3c0-2.3-0.6-4.1-1.9-5.4
	c-1.3-1.3-2.8-1.9-4.7-1.9c-1.8,0-3.4,0.6-4.7,1.9c-1.3,1.3-1.9,3.1-1.9,5.4C56.3,223.7,56.9,225.5,58.2,226.8z"/>
<path d="M104.2,206.2h10.2v32.3H106l-0.6-6.3h-0.1c-0.5,2.2-1.6,4-3.3,5.3s-3.9,2-6.6,2h-0.1c-7.1,0-10.7-4.3-10.7-12.9v-20.4h10.2
	v19.5c0,1.5,0.4,2.7,1.2,3.6s1.8,1.3,3.2,1.3h0.1c1.4,0,2.6-0.5,3.4-1.5c0.9-1,1.3-2.4,1.4-4.2C104.2,224.8,104.2,206.2,104.2,206.2
	z"/>
<path d="M137.5,205.3c0.8,0,1.6,0.1,2.5,0.4l-0.4,11h-0.2c-1.2-0.7-2.4-1-3.6-1c-1.6,0-2.9,0.5-4,1.6s-1.6,2.6-1.6,4.5v16.7h-10.2
	v-32.3h8.3l0.4,5.8c0.6-2.1,1.6-3.8,3.1-4.9C133.4,205.9,135.2,205.3,137.5,205.3z"/>
<path d="M170.6,210.6c2.5,3.2,3.7,7.6,3.7,13.5v0.1l-23.3,0.2c0.3,2.4,1.1,4.2,2.4,5.4c1.3,1.2,2.9,1.8,5,1.8c3.2,0,5.3-1.3,6.2-3.8
	l9.2,0.1c-0.6,3.2-2.2,6-4.8,8.3c-2.6,2.3-6.1,3.4-10.4,3.4c-5,0-9-1.6-12.1-4.8c-3.1-3.2-4.7-7.4-4.7-12.6c0-5.1,1.6-9.2,4.6-12.4
	c3.1-3.1,7.1-4.7,12-4.7C163.6,205.1,167.7,206.9,170.6,210.6z M158.1,212.9c-1.8,0-3.3,0.6-4.6,1.6c-1.2,1.1-2,2.7-2.4,4.8
	l13.8-0.1c-0.2-2-1-3.5-2.2-4.6C161.5,213.4,159.9,212.9,158.1,212.9z"/>
<path d="M195.5,205.3c0.8,0,1.6,0.1,2.5,0.4l-0.4,11h-0.2c-1.2-0.7-2.4-1-3.6-1c-1.6,0-2.9,0.5-4,1.6s-1.6,2.6-1.6,4.5v16.7h-10.2
	v-32.3h8.3l0.4,5.8c0.6-2.1,1.6-3.8,3.1-4.9C191.4,205.9,193.2,205.3,195.5,205.3z"/>
<path d="M217.2,215.4v8.7h-17.9v-8.7H217.2z"/>
<path d="M236.6,239.5c-5,0-9-1.6-12.1-4.7c-3.1-3.2-4.6-7.3-4.6-12.4c0-5.2,1.6-9.3,4.6-12.5c3.1-3.1,7.1-4.7,12.1-4.7
	c4.8,0,8.8,1.6,11.8,4.7s4.6,7.3,4.6,12.5c0,5.1-1.5,9.3-4.6,12.4C245.4,237.9,241.5,239.5,236.6,239.5z M236.6,230.9
	c2.1,0,3.8-0.8,5.1-2.4c1.3-1.6,1.9-3.7,1.9-6.2c0-2.6-0.6-4.7-1.9-6.3c-1.3-1.6-2.9-2.4-5.1-2.4c-2.2,0-3.9,0.8-5.2,2.4
	c-1.3,1.6-1.9,3.7-1.9,6.3c0,2.6,0.6,4.7,1.9,6.3C232.6,230.1,234.4,230.9,236.6,230.9z"/>
<path d="M276.2,206.2h10.2v32.3h-8.3l-0.6-6.3h-0.1c-0.5,2.2-1.6,4-3.3,5.3c-1.7,1.3-3.9,2-6.6,2h-0.1c-7.1,0-10.7-4.3-10.7-12.9
	v-20.4H267v19.5c0,1.5,0.4,2.7,1.2,3.6s1.8,1.3,3.2,1.3h0.1c1.4,0,2.6-0.5,3.4-1.5c0.9-1,1.3-2.4,1.4-4.2V206.2z"/>
<path d="M311.5,214.5h-6.6v12.6c0,2.3,1,3.4,3,3.4h0.1c0.9,0,2-0.2,3.5-0.8h0.1v7.1c-0.3,0.7-1.1,1.3-2.3,1.8s-2.6,0.8-4.2,0.8h-0.1
	c-3.2,0-5.8-0.9-7.5-2.8s-2.7-4.6-2.7-8.2v-14h-4.9v-8.3h4.9v-8.3h10.2v8.3h6.6L311.5,214.5L311.5,214.5z"/>
<path d="M342.5,210.6c2.5,3.2,3.7,7.6,3.7,13.5v0.1l-23.3,0.2c0.3,2.4,1.1,4.2,2.4,5.4c1.3,1.2,2.9,1.8,5,1.8c3.2,0,5.3-1.3,6.2-3.8
	l9.2,0.1c-0.6,3.2-2.2,6-4.8,8.3c-2.6,2.3-6.1,3.4-10.4,3.4c-5,0-9-1.6-12.1-4.8c-3.1-3.2-4.7-7.4-4.7-12.6c0-5.1,1.5-9.2,4.6-12.4
	s7.1-4.7,12-4.7C335.5,205.1,339.6,206.9,342.5,210.6z M330,212.9c-1.8,0-3.3,0.6-4.5,1.6c-1.2,1.1-2,2.7-2.4,4.8l13.8-0.1
	c-0.2-2-1-3.5-2.2-4.6C333.4,213.4,331.8,212.9,330,212.9z"/>
<path d="M367.4,205.3c0.8,0,1.6,0.1,2.5,0.4l-0.4,11h-0.2c-1.2-0.7-2.4-1-3.6-1c-1.6,0-2.9,0.5-4,1.6c-1,1.1-1.6,2.6-1.6,4.5v16.7
	H350v-32.3h8.3l0.4,5.8c0.5-2.1,1.6-3.8,3.1-4.9C363.3,205.9,365.1,205.3,367.4,205.3z"/>
</svg>
