<svg xmlns="http://www.w3.org/2000/svg" viewBox="0 0 586.8 251.7"><path d="M16.8 47.2c-5.2 0-9.4-1.3-12.3-3.9C1.5 40.7 0 37 0 32.2V1.5h11.3v29.8c0 2.1.5 3.7 1.5 4.8s2.5 1.6 4.4 1.6h.1c1.8 0 3.3-.5 4.3-1.6s1.5-2.7 1.5-4.8V1.5h10.4v30.7c0 4.8-1.5 8.5-4.4 11.1-3 2.6-7 3.9-12.1 3.9h-.2zM40.7 1.5h10.5v44.8H40.7V1.5zM104.7 7.2c-4.2-3.8-10-5.7-17.3-5.7h-15v44.8l14.9-.1c7.3 0 13.1-1.9 17.3-5.8 4.3-3.8 6.4-9.4 6.4-16.6s-2.1-12.8-6.3-16.6zM147.1 31.6c.1-5.9-1.2-10.4-3.7-13.6-3-3.7-7.2-5.5-12.4-5.5-5 0-9.1 1.6-12.2 4.8s-4.7 7.3-4.7 12.5c0 5.3 1.5 9.6 4.7 12.8 3.2 3.2 7.3 4.8 12.3 4.8 4.3 0 7.8-1.2 10.5-3.5s4.3-5.1 4.9-8.4l-9.3-.1c-1 2.5-3.1 3.8-6.3 3.8-2 0-3.7-.6-5-1.8s-2.1-3-2.4-5.4l23.6-.3v-.1zM164.2 47.4c-4 0-7.4-1-10-2.9s-4.3-4.6-4.8-8.1l9.1-.1c.9 2.6 2.8 3.9 5.8 3.9 1.4 0 2.5-.3 3.3-.9.8-.6 1.2-1.5 1.2-2.7 0-1.8-1.4-2.9-4.2-3.2l-5.1-.6c-2.9-.3-5.2-1.2-6.7-2.8-1.5-1.6-2.3-3.7-2.3-6.3 0-3.4 1.2-6.1 3.7-8.3 2.5-2.1 5.7-3.2 9.7-3.2s7.2 1.1 9.7 3.2c2.5 2.2 3.9 4.8 4.3 8l-9.2.1c-.6-2.8-2.3-4.2-5.1-4.2-1.4 0-2.5.3-3.3 1s-1.2 1.6-1.2 2.6c0 1.7 1.3 2.7 4 3l4.9.5c6.6.6 9.9 3.8 9.9 9.7 0 3.5-1.2 6.2-3.7 8.2-2.5 2.1-5.9 3.1-10 3.1zM182.7 0h10.6v9.3h-10.6V0zM182.8 13.6h10.4v32.7h-10.4V13.6zM223 13.6l-.3 5.9c-.7-2-1.9-3.6-3.8-4.9-1.9-1.3-4.2-1.9-6.8-1.9-4.1 0-7.6 1.5-10.3 4.4s-4.1 6.9-4.1 11.9c0 4.9 1.4 8.8 4.1 11.6 2.7 2.9 6 4.3 10.1 4.3 2.5 0 4.6-.6 6.3-1.6 1.7-1.1 2.9-2.5 3.5-4.3v6.8c0 1.8-.6 3.3-1.7 4.3s-2.7 1.5-4.7 1.5c-3.4 0-5.6-1.4-6.5-4.2h-9.9c.6 3.7 2.4 6.6 5.5 8.9s6.8 3.4 11.3 3.4c4.6 0 8.4-1.2 11.3-3.6 2.9-2.4 4.4-5.9 4.4-10.6V13.6H223zM256.4 12.5c3.4 0 6.1 1.1 8 3.2 1.9 2.2 2.8 5.1 2.8 8.9v21.6h-10.4v-19c0-3.5-1.4-5.3-4.3-5.3-1.5 0-2.7.5-3.6 1.6-.9 1-1.4 2.6-1.4 4.5v18.3h-10.3V13.6h8.4l.4 6.4c.5-2.2 1.7-4 3.5-5.4 1.9-1.4 4.2-2.1 6.9-2.1zM304.1 31.6c.1-5.9-1.2-10.4-3.7-13.6-3-3.7-7.1-5.5-12.3-5.5-5 0-9.1 1.6-12.2 4.8s-4.7 7.3-4.7 12.5c0 5.3 1.5 9.6 4.7 12.8 3.2 3.2 7.3 4.8 12.3 4.8 4.3 0 7.8-1.2 10.5-3.5s4.3-5.1 4.9-8.4l-9.3-.1c-1 2.5-3.1 3.8-6.3 3.8-2 0-3.7-.6-5-1.8s-2.1-3-2.4-5.4l23.5-.3v-.1zM325.6 12.7c.8 0 1.6.1 2.6.4l-.4 11.1h-.2c-1.2-.7-2.4-1-3.6-1-1.6 0-3 .5-4 1.6s-1.6 2.6-1.6 4.6v16.9H308V13.6h8.4l.4 5.9c.6-2.1 1.6-3.8 3.1-5s3.4-1.8 5.7-1.8zM27.8 106.7v-9.2H.3v44.8h10.6V125h14.9v-8.8H10.9v-9.5h16.9zM48.8 108.7c.8 0 1.6.1 2.6.4l-.4 11.1h-.2c-1.2-.7-2.4-1-3.6-1-1.6 0-3 .5-4 1.6-1.1 1.1-1.6 2.6-1.6 4.6v16.9H31.2v-32.7h8.4l.4 5.9c.6-2.1 1.6-3.8 3.1-5 1.5-1.2 3.4-1.8 5.7-1.8zM82.1 113.3c-3.1-3.2-7.1-4.8-12-4.8-5.1 0-9.2 1.6-12.3 4.8-3.1 3.1-4.7 7.4-4.7 12.6 0 5.2 1.6 9.4 4.7 12.6 3.1 3.2 7.2 4.8 12.2 4.8 4.9 0 8.9-1.6 12.1-4.8 3.1-3.2 4.6-7.4 4.6-12.6s-1.5-9.4-4.6-12.6zM110.1 108.5c3.4 0 6.1 1.1 8 3.2 1.9 2.2 2.8 5.1 2.8 8.9v21.6h-10.4v-19.1c0-3.5-1.4-5.3-4.3-5.3-1.5 0-2.7.5-3.6 1.6-.9 1-1.4 2.6-1.4 4.5v18.3H90.9v-32.7h8.4l.4 6.4c.5-2.2 1.7-4 3.5-5.4 1.9-1.3 4.2-2 6.9-2zM145.9 118h-6.7v12.8c0 2.3 1 3.5 3.1 3.5h.1c.9 0 2.1-.3 3.5-.8h.1v7.2c-.3.7-1.1 1.3-2.4 1.8-1.2.5-2.6.8-4.2.8h-.1c-3.3 0-5.8-.9-7.6-2.8-1.8-1.9-2.7-4.7-2.7-8.3V118h-5v-8.4h4.9v-8.4h10.3v8.4h6.7v8.4zM148.5 118.9h18.1v8.8h-18.1v-8.8zM202.4 127.6c.1-5.9-1.2-10.4-3.7-13.6-3-3.7-7.1-5.5-12.4-5.5-5 0-9.1 1.6-12.2 4.8-3.1 3.2-4.7 7.3-4.7 12.5 0 5.3 1.5 9.6 4.7 12.8s7.3 4.8 12.3 4.8c4.3 0 7.8-1.2 10.5-3.5s4.3-5.1 4.9-8.4l-9.3-.1c-1 2.5-3.1 3.8-6.3 3.8-2 0-3.7-.6-5-1.8s-2.1-3-2.4-5.4l23.6-.3v-.1zM225.5 108.5c3.4 0 6.1 1.1 8 3.2 1.9 2.2 2.8 5.1 2.8 8.9v21.6h-10.4v-19.1c0-3.5-1.4-5.3-4.3-5.3-1.5 0-2.7.5-3.6 1.6-.9 1-1.4 2.6-1.4 4.5v18.3h-10.3v-32.7h8.4l.4 6.4c.5-2.2 1.7-4 3.5-5.4 1.9-1.3 4.1-2 6.9-2zM264.5 97.2v17.1c-.9-1.6-2.2-2.9-4-3.9s-3.9-1.5-6.2-1.5c-4.1 0-7.4 1.5-10.1 4.6-2.7 3.1-4 7.3-4 12.8 0 5.2 1.4 9.4 4.1 12.4 2.8 3 6.2 4.5 10.4 4.5 2.7 0 5-.6 7-1.8s3.4-2.7 4.1-4.7l.4 5.6h8.4V97.2h-10.1zM327.5 103.5c-4.2-3.8-10-5.7-17.3-5.7h-15v44.8l14.9-.1c7.3 0 13.1-1.9 17.3-5.8 4.3-3.8 6.4-9.4 6.4-16.6s-2.1-12.8-6.3-16.6zM369.8 127.6c.1-5.9-1.2-10.4-3.7-13.6-3-3.7-7.2-5.5-12.4-5.5-5 0-9.1 1.6-12.2 4.8-3.1 3.2-4.7 7.3-4.7 12.5 0 5.3 1.5 9.6 4.7 12.8s7.3 4.8 12.3 4.8c4.3 0 7.8-1.2 10.5-3.5s4.3-5.1 4.9-8.4l-9.3-.1c-1 2.5-3.1 3.8-6.3 3.8-2 0-3.7-.6-5-1.8s-2.1-3-2.4-5.4l23.6-.3v-.1zM380.3 142.3l-10.8-32.7h11.1l4.6 15.6 1.4 5.3h.2l1.4-5.3 4.8-15.6h10l-10.9 32.7h-11.8zM436.1 127.6c.1-5.9-1.2-10.4-3.7-13.6-2.9-3.7-7.1-5.5-12.4-5.5-5 0-9.1 1.6-12.2 4.8-3.1 3.2-4.7 7.3-4.7 12.5 0 5.3 1.5 9.6 4.7 12.8s7.3 4.8 12.3 4.8c4.3 0 7.8-1.2 10.5-3.5s4.3-5.1 4.9-8.4l-9.3-.1c-1 2.5-3.1 3.8-6.3 3.8-2 0-3.7-.6-5-1.8s-2.1-3-2.4-5.4l23.6-.3v-.1zM440 97h10.3v45.2H440V97zM483.6 113.3c-3.1-3.2-7.1-4.8-12-4.8-5.1 0-9.2 1.6-12.3 4.8-3.1 3.1-4.7 7.4-4.7 12.6 0 5.2 1.6 9.4 4.7 12.6s7.2 4.8 12.2 4.8 9-1.6 12.1-4.8 4.6-7.4 4.6-12.6c0-5.2-1.5-9.4-4.6-12.6zM522.8 113.2c-2.6-3-6.1-4.5-10.2-4.5-2.7 0-5 .6-6.9 1.7-1.9 1.3-3.3 2.9-4.2 5l-.3-5.9h-8.6v43.6h10v-15.6c.8 1.7 2.1 3.1 3.9 4.1s3.9 1.5 6.2 1.5c4.1 0 7.4-1.5 10.1-4.5s4-7.2 4-12.6c0-5.5-1.3-9.8-4-12.8zM562.8 127.6c.1-5.9-1.2-10.4-3.7-13.6-3-3.7-7.1-5.5-12.4-5.5-5 0-9.1 1.6-12.2 4.8-3.1 3.2-4.7 7.3-4.7 12.5 0 5.3 1.5 9.6 4.7 12.8s7.3 4.8 12.3 4.8c4.3 0 7.8-1.2 10.5-3.5s4.3-5.1 4.9-8.4l-9.3-.1c-1 2.5-3.1 3.8-6.3 3.8-2 0-3.7-.6-5-1.8s-2.1-3-2.4-5.4l23.6-.3v-.1zM584.2 108.7c.8 0 1.6.1 2.6.4l-.4 11.1h-.2c-1.2-.7-2.4-1-3.6-1-1.6 0-3 .5-4 1.6s-1.6 2.6-1.6 4.6v16.9h-10.3v-32.7h8.4l.4 5.9c.6-2.1 1.6-3.8 3.1-5 1.5-1.2 3.4-1.8 5.6-1.8zM27.8 202.7v-9.2H.3v44.8h10.6V221h14.9v-8.8H10.9v-9.5h16.9zM32 192h10.6v9.3H32V192zM32.1 205.6h10.4v32.7H32.1v-32.7zM72.4 205.6l-.3 5.9c-.7-2-1.9-3.6-3.8-4.9s-4.2-1.9-6.8-1.9c-4.1 0-7.6 1.5-10.3 4.4s-4.1 6.9-4.1 11.9c0 4.9 1.4 8.8 4.1 11.6 2.7 2.9 6 4.3 10.1 4.3 2.5 0 4.6-.6 6.3-1.6 1.7-1.1 2.9-2.5 3.5-4.3v6.8c0 1.8-.6 3.3-1.7 4.3s-2.7 1.5-4.7 1.5c-3.4 0-5.6-1.4-6.5-4.2h-9.9c.6 3.7 2.4 6.6 5.5 8.9 3.1 2.3 6.8 3.4 11.3 3.4 4.6 0 8.4-1.2 11.3-3.6 2.9-2.4 4.4-5.9 4.4-10.6v-31.9h-8.4zM105.7 205.6H116v32.7h-8.4l-.6-6.3c-.5 2.3-1.6 4.1-3.4 5.4s-4 2-6.7 2h-.1c-7.2 0-10.8-4.4-10.8-13.1v-20.7h10.3v19.7c0 1.5.4 2.7 1.2 3.6.8.9 1.9 1.3 3.2 1.3h.1c1.5 0 2.6-.5 3.5-1.5s1.3-2.4 1.4-4.3v-18.8zM139.5 204.7c.8 0 1.6.1 2.6.4l-.4 11.1h-.2c-1.2-.7-2.4-1-3.6-1-1.6 0-3 .5-4 1.6-1.1 1.1-1.6 2.6-1.6 4.6v16.9H122v-32.7h8.4l.4 5.9c.6-2.1 1.6-3.8 3.1-5 1.4-1.2 3.3-1.8 5.6-1.8zM176.8 223.6c.1-5.9-1.2-10.4-3.7-13.6-3-3.7-7.2-5.5-12.4-5.5-5 0-9.1 1.6-12.2 4.8-3.1 3.2-4.7 7.3-4.7 12.5 0 5.3 1.5 9.6 4.7 12.8s7.3 4.8 12.3 4.8c4.3 0 7.8-1.2 10.5-3.5s4.3-5.1 4.9-8.4l-9.3-.1c-1 2.5-3.1 3.8-6.3 3.8-2 0-3.7-.6-5-1.8s-2.1-3-2.4-5.4l23.6-.3v-.1zM198.2 204.7c.8 0 1.6.1 2.6.4l-.4 11.1h-.2c-1.2-.7-2.4-1-3.6-1-1.6 0-3 .5-4 1.6-1.1 1.1-1.6 2.6-1.6 4.6v16.9h-10.3v-32.7h8.4l.4 5.9c.6-2.1 1.6-3.8 3.1-5 1.5-1.2 3.3-1.8 5.6-1.8zM202.9 214.6H221v8.8h-18.1v-8.8zM252 209.3c-3.1-3.2-7.1-4.8-12-4.8-5.1 0-9.2 1.6-12.3 4.8-3.1 3.1-4.7 7.4-4.7 12.6 0 5.2 1.6 9.4 4.7 12.6 3.1 3.2 7.2 4.8 12.2 4.8 4.9 0 8.9-1.6 12.1-4.8 3.1-3.2 4.6-7.4 4.6-12.6s-1.5-9.4-4.6-12.6zM280 205.6h10.3v32.7h-8.4l-.6-6.3h-.1c-.5 2.3-1.6 4.1-3.4 5.4s-4 2-6.7 2h-.1c-7.2 0-10.8-4.4-10.8-13.1v-20.7h10.3v19.7c0 1.5.4 2.7 1.2 3.6.8.9 1.9 1.3 3.2 1.3h.1c1.5 0 2.6-.5 3.5-1.5s1.3-2.4 1.4-4.3l.1-18.8zM315.7 214H309v12.8c0 2.3 1 3.5 3.1 3.5h.1c.9 0 2.1-.3 3.5-.8h.1v7.2c-.3.7-1.1 1.3-2.4 1.8-1.2.5-2.6.8-4.2.8h-.1c-3.3 0-5.8-.9-7.6-2.8-1.8-1.9-2.7-4.7-2.7-8.3V214h-4.9v-8.4h4.9v-8.4H309v8.4h6.7v8.4zM350.8 223.6c.1-5.9-1.2-10.4-3.7-13.6-3-3.7-7.1-5.5-12.4-5.5-5 0-9.1 1.6-12.2 4.8s-4.7 7.3-4.7 12.5c0 5.3 1.5 9.6 4.7 12.8s7.3 4.8 12.3 4.8c4.3 0 7.8-1.2 10.5-3.5s4.3-5.1 4.9-8.4l-9.3-.1c-1 2.5-3.1 3.8-6.3 3.8-2 0-3.7-.6-5-1.8s-2.1-3-2.4-5.4l23.6-.3v-.1zM372.3 204.7c.8 0 1.6.1 2.6.4l-.4 11.1h-.2c-1.2-.7-2.4-1-3.6-1-1.6 0-3 .5-4 1.6s-1.6 2.6-1.6 4.6v16.9h-10.3v-32.7h8.4l.4 5.9c.6-2.1 1.6-3.8 3.1-5 1.4-1.2 3.3-1.8 5.6-1.8z"/></svg>